<svg width="60" height="60" viewBox="0 0 60 60" fill="none" xmlns="http://www.w3.org/2000/svg">
<path d="M41.25 45C41.8467 45 42.419 44.7629 42.841 44.341C43.2629 43.919 43.5 43.3467 43.5 42.75V37.5C43.5 36.9033 43.2629 36.331 42.841 35.909C42.419 35.4871 41.8467 35.25 41.25 35.25C39.495 35.25 37.77 34.98 36.12 34.425C35.7255 34.3005 35.3045 34.2864 34.9025 34.3842C34.5006 34.4821 34.1331 34.6881 33.84 34.98L31.68 37.14C27.9484 35.1036 24.8814 32.0366 22.845 28.305L24.99 26.16C25.605 25.575 25.83 24.705 25.56 23.865C25.02 22.23 24.75 20.505 24.75 18.75C24.75 18.1533 24.5129 17.581 24.091 17.159C23.669 16.7371 23.0967 16.5 22.5 16.5H17.25C16.6533 16.5 16.081 16.7371 15.659 17.159C15.2371 17.581 15 18.1533 15 18.75C15 33.225 26.775 45 41.25 45ZM17.25 18H22.5C22.6989 18 22.8897 18.079 23.0303 18.2197C23.171 18.3603 23.25 18.5511 23.25 18.75C23.25 20.67 23.55 22.545 24.135 24.33C24.21 24.54 24.195 24.84 23.955 25.08L21 28.02C23.475 32.865 27.105 36.495 31.965 39L34.89 36.045C35.1 35.835 35.385 35.775 35.655 35.85C37.455 36.45 39.33 36.75 41.25 36.75C41.4489 36.75 41.6397 36.829 41.7803 36.9697C41.921 37.1103 42 37.3011 42 37.5V42.75C42 42.9489 41.921 43.1397 41.7803 43.2803C41.6397 43.421 41.4489 43.5 41.25 43.5C27.6 43.5 16.5 32.4 16.5 18.75C16.5 18.5511 16.579 18.3603 16.7197 18.2197C16.8603 18.079 17.0511 18 17.25 18Z" fill="#646464"/>
</svg>
