<svg width="50" height="38" viewBox="0 0 50 38" fill="none" xmlns="http://www.w3.org/2000/svg">
<path d="M25.11 26.2184L25 26.3316L24.879 26.2184C19.654 21.3382 16.2 18.1111 16.2 14.8388C16.2 12.5741 17.85 10.8757 20.05 10.8757C21.744 10.8757 23.394 12.008 23.977 13.5479H26.023C26.606 12.008 28.256 10.8757 29.95 10.8757C32.15 10.8757 33.8 12.5741 33.8 14.8388C33.8 18.1111 30.346 21.3382 25.11 26.2184ZM29.95 8.61108C28.036 8.61108 26.199 9.52825 25 10.9663C23.801 9.52825 21.964 8.61108 20.05 8.61108C16.662 8.61108 14 11.3399 14 14.8388C14 19.1075 17.74 22.6064 23.405 27.8942L25 29.3889L26.595 27.8942C32.26 22.6064 36 19.1075 36 14.8388C36 11.3399 33.338 8.61108 29.95 8.61108Z" fill="black"/>
</svg>
