<svg width="32" height="32" viewBox="0 0 32 32" fill="none" xmlns="http://www.w3.org/2000/svg">
<path d="M7.67984 10.4533H26.8798L24.4437 19.9253C24.2602 20.6383 23.8726 21.2655 23.3397 21.712C22.8068 22.1585 22.1575 22.4 21.49 22.3999H11.1988C10.4423 22.4004 9.71219 22.0907 9.14844 21.5301C8.58469 20.9696 8.22693 20.1976 8.14372 19.3621L6.91184 7.03995H3.83984" stroke="white" stroke-width="2" stroke-linecap="round" stroke-linejoin="round"/>
<path d="M10.6664 28.4648C11.508 28.4648 12.1902 27.7825 12.1902 26.941C12.1902 26.0994 11.508 25.4171 10.6664 25.4171C9.82481 25.4171 9.14258 26.0994 9.14258 26.941C9.14258 27.7825 9.82481 28.4648 10.6664 28.4648Z" fill="white"/>
<path d="M22.8568 28.4648C23.6984 28.4648 24.3806 27.7825 24.3806 26.941C24.3806 26.0994 23.6984 25.4171 22.8568 25.4171C22.0152 25.4171 21.333 26.0994 21.333 26.941C21.333 27.7825 22.0152 28.4648 22.8568 28.4648Z" fill="white"/>
</svg>
