<svg width="50" height="50" viewBox="0 0 50 50" fill="none" xmlns="http://www.w3.org/2000/svg">
<circle cx="25" cy="25" r="25" fill="#D9D9D9"/>
<path d="M32.7453 36.3871H39.2194C40.3395 36.3871 40.8995 36.3871 41.3273 36.1691C41.7037 35.9774 42.0096 35.6714 42.2014 35.2951C42.4194 34.8673 42.4194 34.3072 42.4194 33.1871V15.2C42.4194 14.0799 42.4194 13.5198 42.2014 13.092C42.0096 12.7157 41.7037 12.4097 41.3273 12.218C40.8995 12 40.3395 12 39.2194 12H12.2C11.0799 12 10.5198 12 10.092 12.218C9.71569 12.4097 9.40973 12.7157 9.21799 13.092C9 13.5198 9 14.0799 9 15.2V33.1871C9 34.3072 9 34.8673 9.21799 35.2951C9.40973 35.6714 9.71569 35.9774 10.092 36.1691C10.5198 36.3871 11.0799 36.3871 12.2 36.3871H18.674" stroke="#646464" stroke-linecap="round"/>
<path d="M16.0356 25.5483L24.8591 34.6102C25.4045 35.1704 25.7097 35.9213 25.7097 36.7031V40M16.0356 25.5483H19.5535M16.0356 25.5483V29.1612" stroke="black" stroke-linecap="round" stroke-linejoin="round"/>
<path d="M35.3838 25.5483L26.5604 34.6102C26.015 35.1704 25.7098 35.9213 25.7098 36.7031V40M35.3838 25.5483H31.866M35.3838 25.5483V29.1612" stroke="black" stroke-linecap="round" stroke-linejoin="round"/>
<path d="M25.7097 18.3226V37.2904M25.7097 18.3226L23.0713 21.0323M25.7097 18.3226L28.348 21.0323" stroke="black" stroke-linecap="round" stroke-linejoin="round"/>
</svg>
