<svg width="50" height="50" viewBox="0 0 50 50" fill="none" xmlns="http://www.w3.org/2000/svg">
<circle cx="25" cy="25" r="25" fill="#D9D9D9"/>
<path d="M37.1406 23.8542C37.3755 23.3591 38.0802 23.3591 38.3151 23.8542L39.5613 26.4807C39.7575 26.8942 40.1498 27.1801 40.6035 27.2403L43.4818 27.6218C44.0227 27.6936 44.2399 28.3596 43.8452 28.7363L41.7322 30.7536C41.403 31.0679 41.2543 31.5269 41.3367 31.9745L41.8661 34.8498C41.9652 35.3879 41.3957 35.8002 40.9154 35.538L38.3747 34.1512C37.9715 33.9311 37.4842 33.9311 37.081 34.1512L34.5403 35.538C34.06 35.8002 33.4905 35.3879 33.5896 34.8498L34.119 31.9745C34.2014 31.5269 34.0527 31.0679 33.7235 30.7536L31.6105 28.7363C31.2158 28.3596 31.433 27.6936 31.9739 27.6218L34.8522 27.2403C35.3059 27.1801 35.6983 26.8942 35.8944 26.4807L37.1406 23.8542Z" stroke="#61676C" stroke-width="0.7"/>
<path d="M11.6855 23.8542C11.9205 23.3591 12.6251 23.3591 12.86 23.8542L14.1062 26.4807C14.3024 26.8942 14.6947 27.1801 15.1484 27.2403L18.0267 27.6218C18.5676 27.6936 18.7848 28.3596 18.3901 28.7363L16.2771 30.7536C15.9479 31.0679 15.7992 31.5269 15.8816 31.9745L16.411 34.8498C16.5101 35.3879 15.9406 35.8002 15.4604 35.538L12.9196 34.1512C12.5164 33.9311 12.0291 33.9311 11.626 34.1512L9.0852 35.538C8.60494 35.8002 8.03544 35.3879 8.13452 34.8498L8.6639 31.9745C8.74632 31.5269 8.59764 31.0679 8.26844 30.7536L6.15542 28.7363C5.76076 28.3596 5.97793 27.6936 6.51884 27.6218L9.39711 27.2403C9.85083 27.1801 10.2432 26.8942 10.4394 26.4807L11.6855 23.8542Z" stroke="#61676C" stroke-width="0.7"/>
<path d="M24.5483 11.1185C24.729 10.7376 25.271 10.7376 25.4517 11.1185L28.8973 18.3804C29.1153 18.8399 29.5512 19.1576 30.0554 19.2244L37.9969 20.2772C38.413 20.3324 38.58 20.8447 38.2764 21.1346L32.4595 26.688C32.0937 27.0372 31.9285 27.5472 32.0201 28.0446L33.4793 35.9701C33.5555 36.3841 33.1174 36.7012 32.748 36.4996L25.7187 32.6626C25.2708 32.4181 24.7293 32.4181 24.2813 32.6626L17.252 36.4996C16.8826 36.7012 16.4445 36.3841 16.5207 35.9701L17.98 28.0445C18.0715 27.5472 17.9063 27.0372 17.5405 26.688L11.7236 21.1346C11.42 20.8447 11.587 20.3324 12.0031 20.2772L19.9447 19.2244C20.4488 19.1576 20.8847 18.8399 21.1027 18.3804L24.5483 11.1185Z" stroke="black"/>
</svg>
