<svg width="163" height="70" viewBox="0 0 163 70" fill="none" xmlns="http://www.w3.org/2000/svg">
<path d="M102.279 46.1939C99.2036 46.1939 96.9924 45.4108 95.6595 43.8446C94.3276 42.2917 93.6616 39.9957 93.6616 36.9828V26.67C93.6616 25.1835 93.8171 23.896 94.1143 22.8078C94.4123 21.7194 94.8939 20.777 95.5608 19.9674C96.2267 19.171 97.12 18.587 98.2396 18.1889C99.3591 17.7775 100.706 17.5783 102.279 17.5783C105.326 17.5783 107.537 18.3482 108.87 19.8877C110.202 21.4274 110.883 23.6837 110.883 26.67V36.9828C110.883 38.456 110.726 39.7435 110.414 40.8451C110.117 41.9467 109.621 42.9156 108.955 43.7385C108.289 44.5481 107.409 45.1587 106.29 45.5701C105.17 45.9815 103.838 46.1939 102.279 46.1939ZM100.904 42.1989C101.286 42.3449 101.74 42.4245 102.279 42.4245C102.804 42.4245 103.257 42.3449 103.625 42.1989C103.994 42.0528 104.292 41.8671 104.504 41.6281C104.731 41.3892 104.901 41.0839 105.029 40.699C105.156 40.3142 105.241 39.9293 105.284 39.5576C105.326 39.1727 105.355 38.7215 105.355 38.1906V25.4888C105.355 24.8119 105.312 24.2544 105.241 23.8032C105.17 23.3519 105.029 22.9271 104.816 22.5423C104.603 22.1308 104.292 21.8389 103.88 21.6398C103.456 21.4406 102.916 21.3345 102.279 21.3345C101.627 21.3345 101.088 21.4406 100.649 21.6398C100.223 21.8389 99.9115 22.1308 99.7131 22.5423C99.5147 22.9271 99.3731 23.3519 99.3023 23.8032C99.2315 24.2544 99.1887 24.8119 99.1887 25.4888V38.1906C99.1887 38.7215 99.2036 39.1727 99.2455 39.5576C99.3023 39.9293 99.3731 40.3142 99.5007 40.699C99.6283 41.0839 99.7988 41.3892 100.025 41.6281C100.237 41.8671 100.536 42.0528 100.904 42.1989ZM121.924 46.1939C120.592 46.1939 119.43 46.0479 118.452 45.7559C117.474 45.4639 116.665 45.0525 116.028 44.5216C115.404 44.0039 114.907 43.327 114.526 42.5041C114.143 41.668 113.888 40.7787 113.731 39.8231C113.589 38.8542 113.519 37.7393 113.519 36.4651V17.8969H118.792V36.9828C118.792 37.6331 118.805 38.1906 118.848 38.6551C118.876 39.1196 118.962 39.5974 119.075 40.1018C119.202 40.6194 119.359 41.0176 119.585 41.3229C119.812 41.6281 120.11 41.8803 120.506 42.0794C120.903 42.2785 121.372 42.3847 121.924 42.3847C122.476 42.3847 122.945 42.2785 123.328 42.0794C123.724 41.8803 124.021 41.6281 124.234 41.3229C124.447 41.0176 124.617 40.6194 124.73 40.1018C124.858 39.5974 124.943 39.1196 124.972 38.6684C124.999 38.2171 125.013 37.6464 125.013 36.9828V17.8969H130.3V36.4651C130.3 37.7393 130.215 38.8542 130.06 39.8231C129.918 40.7787 129.648 41.668 129.266 42.5041C128.898 43.327 128.401 44.0039 127.778 44.5216C127.154 45.0525 126.346 45.4639 125.368 45.7559C124.39 46.0479 123.242 46.1939 121.924 46.1939ZM140.62 46.1939C135.361 46.1939 132.611 43.3536 132.342 37.6596L137.075 36.7306C137.203 40.4336 138.324 42.2785 140.463 42.2785C141.286 42.2785 141.91 42.0528 142.306 41.575C142.703 41.0973 142.916 40.4734 142.916 39.6638C142.916 38.894 142.76 38.1906 142.462 37.5402C142.164 36.8899 141.81 36.3589 141.413 35.9608C141.016 35.5493 140.449 35.0317 139.726 34.4211L135.8 31.2358C134.638 30.2934 133.788 29.3112 133.22 28.3026C132.654 27.2806 132.37 26.0064 132.37 24.48C132.37 22.3034 133.051 20.6178 134.412 19.41C135.771 18.2155 137.657 17.6049 140.024 17.5783C141.13 17.565 142.093 17.6979 142.929 17.9633C143.766 18.2287 144.461 18.587 144.999 19.0251C145.551 19.4631 146.005 20.0205 146.374 20.6841C146.743 21.3477 147.012 22.0379 147.196 22.7547C147.38 23.4714 147.507 24.2544 147.578 25.1305L142.929 25.9931C142.902 25.4357 142.859 24.9446 142.802 24.5199C142.76 24.1085 142.66 23.6837 142.533 23.259C142.405 22.8343 142.221 22.4892 142.008 22.237C141.81 21.9582 141.527 21.7459 141.158 21.5999C140.818 21.4406 140.406 21.3743 139.939 21.4009C139.131 21.454 138.522 21.7061 138.082 22.1707C137.672 22.6219 137.458 23.2192 137.458 23.989C137.458 24.8915 137.643 25.6347 138.012 26.2187C138.394 26.7895 138.99 27.4 139.797 28.0636L143.681 31.2358C144.333 31.7932 144.899 32.3241 145.382 32.8417C145.864 33.3594 146.317 33.9434 146.743 34.607C147.196 35.2707 147.522 36.0006 147.749 36.7969C147.976 37.6066 148.104 38.4428 148.104 39.332C148.104 41.3627 147.409 43.0217 146.02 44.2959C144.659 45.5568 142.859 46.1939 140.62 46.1939ZM150.172 45.862V17.8969H162.674V21.4937H155.616V29.5237H161.186V33.1072H155.616V42.3316H162.759V45.862H150.172ZM81.5282 17.9234L81.5425 29.5502L87.6656 29.59L87.6514 17.9234H81.5282ZM81.6558 33.2798L81.67 45.6895L87.7648 45.7161L87.7506 33.2798H81.6558ZM8.0507 46.5655C5.23009 46.5655 3.18905 45.7427 1.94175 44.0836C0.708613 42.4245 0.0849609 40.0222 0.0849609 36.8633V27.7584C0.0849609 26.1524 0.226701 24.7721 0.481831 23.6173C0.765308 22.4361 1.21887 21.4274 1.8567 20.5381C2.49453 19.6622 3.37331 19.0118 4.49305 18.5738C5.59861 18.1358 6.97348 17.9102 8.58931 17.9102C11.5517 17.9102 13.6636 18.587 14.9534 19.9541C16.229 21.2946 16.881 23.3519 16.881 26.1126V27.4797H11.665V26.0196C11.665 25.4092 11.6509 24.9048 11.6226 24.5066C11.5942 24.1085 11.5233 23.7235 11.3958 23.3254C11.2966 22.9271 11.1265 22.6087 10.9138 22.3963C10.7012 22.1839 10.4036 22.0113 10.035 21.8786C9.66656 21.7327 9.19879 21.6663 8.66018 21.6663C8.26331 21.6663 7.89479 21.7194 7.56879 21.8255C7.25696 21.9185 6.98766 22.0379 6.77505 22.1839C6.56244 22.3166 6.37818 22.5025 6.20809 22.7679C6.06635 23.0333 5.95296 23.2723 5.86791 23.5245C5.79705 23.7633 5.74035 24.0686 5.69783 24.4535C5.65531 24.8384 5.62696 25.1702 5.62696 25.4623C5.61279 25.7542 5.59861 26.1391 5.59861 26.5904V37.872C5.59861 39.5576 5.82539 40.8052 6.26479 41.5883C6.71835 42.3581 7.55461 42.7563 8.80191 42.7563C9.45391 42.7563 9.99256 42.6368 10.4319 42.4112C10.8713 42.1723 11.2115 41.8272 11.4525 41.3627C11.7076 40.8982 11.8777 40.3672 11.9769 39.77C12.0902 39.1595 12.147 38.4294 12.147 37.58V35.2839H8.91531V31.9923H17.037V46.1939H13.5077L13.1108 43.3536C12.2178 45.4905 10.5311 46.5655 8.0507 46.5655ZM28.1493 46.5257C25.0736 46.5257 22.8766 45.7427 21.5442 44.1898C20.2119 42.6235 19.5458 40.3407 19.5458 37.3146V27.0019C19.5458 25.5154 19.6875 24.2279 19.9993 23.1396C20.297 22.0512 20.7789 21.1088 21.4309 20.3125C22.1112 19.5028 23.0042 18.9188 24.1239 18.5207C25.2295 18.1093 26.576 17.9102 28.1493 17.9102C31.2109 17.9102 33.4078 18.68 34.7402 20.2196C36.0867 21.7592 36.767 24.0155 36.767 27.0019V37.3146C36.767 38.7878 36.597 40.0753 36.2993 41.1901C35.9875 42.2785 35.5056 43.2474 34.8394 44.0703C34.1732 44.8799 33.2802 45.4905 32.1747 45.9019C31.055 46.3266 29.7085 46.5257 28.1493 46.5257ZM26.7886 42.5307C27.1713 42.6767 27.6249 42.7563 28.1493 42.7563C28.6738 42.7563 29.1273 42.6767 29.4958 42.5307C29.8786 42.3847 30.1761 42.1989 30.3888 41.9599C30.6156 41.721 30.7857 41.4158 30.9132 41.0309C31.0408 40.646 31.1258 40.2611 31.1683 39.8894C31.2109 39.5045 31.225 39.0533 31.225 38.5224V25.8206C31.225 25.1437 31.1967 24.5862 31.1258 24.135C31.055 23.6837 30.9132 23.259 30.6865 22.8741C30.488 22.4626 30.1762 22.1707 29.751 21.9716C29.3399 21.7725 28.8013 21.6663 28.1493 21.6663C27.4973 21.6663 26.9587 21.7725 26.5335 21.9716C26.1082 22.1707 25.7965 22.4626 25.598 22.8741C25.3854 23.259 25.2578 23.6837 25.187 24.135C25.1161 24.5862 25.0736 25.1437 25.0736 25.8206V38.5224C25.0736 39.0533 25.0878 39.5045 25.1302 39.8894C25.1728 40.2611 25.2578 40.646 25.3854 41.0309C25.513 41.4158 25.683 41.721 25.8957 41.9599C26.1225 42.1989 26.4059 42.3847 26.7886 42.5307ZM47.7518 46.5257C44.6761 46.5257 42.4791 45.7427 41.1468 44.1898C39.8145 42.6235 39.1482 40.3407 39.1482 37.3146V27.0019C39.1482 25.5154 39.29 24.2279 39.5877 23.1396C39.8853 22.0512 40.3672 21.1088 41.0334 20.3125C41.6996 19.5028 42.5926 18.9188 43.7122 18.5207C44.832 18.1093 46.1786 17.9102 47.7518 17.9102C50.8133 17.9102 53.0103 18.68 54.3427 20.2196C55.6892 21.7592 56.3554 24.0155 56.3554 27.0019V37.3146C56.3554 38.7878 56.1995 40.0753 55.8877 41.1901C55.59 42.2785 55.1081 43.2474 54.4278 44.0703C53.7758 44.8799 52.8828 45.4905 51.763 45.9019C50.6433 46.3266 49.311 46.5257 47.7518 46.5257ZM46.377 42.5307C46.7597 42.6767 47.2273 42.7563 47.7518 42.7563C48.2762 42.7563 48.7298 42.6767 49.0983 42.5307C49.4669 42.3847 49.7646 42.1989 49.9771 41.9599C50.2181 41.721 50.3882 41.4158 50.5016 41.0309C50.6433 40.646 50.7284 40.2611 50.7567 39.8894C50.7992 39.5045 50.8276 39.0533 50.8276 38.5224V25.8206C50.8276 25.1437 50.7992 24.5862 50.7283 24.135C50.6433 23.6837 50.5016 23.259 50.289 22.8741C50.0906 22.4626 49.7787 22.1707 49.3535 21.9716C48.9282 21.7725 48.4038 21.6663 47.7518 21.6663C47.0998 21.6663 46.5612 21.7725 46.136 21.9716C45.7108 22.1707 45.399 22.4626 45.1863 22.8741C44.9879 23.259 44.8462 23.6837 44.7753 24.135C44.7045 24.5862 44.6761 25.1437 44.6761 25.8206V38.5224C44.6761 39.0533 44.6902 39.5045 44.7186 39.8894C44.7753 40.2611 44.8603 40.646 44.9738 41.0309C45.1155 41.4158 45.2856 41.721 45.4982 41.9599C45.7108 42.1989 46.0085 42.3847 46.377 42.5307ZM59.2186 46.1939V18.2287H66.1779C67.978 18.2287 69.4805 18.4012 70.6994 18.7331C71.9042 19.0782 72.8822 19.609 73.6192 20.339C74.3421 21.0691 74.8666 21.9716 75.1642 23.0334C75.476 24.0952 75.6319 25.3959 75.6319 26.9488V37.0359C75.6319 38.6285 75.476 39.9823 75.1642 41.0973C74.8523 42.2121 74.3279 43.1545 73.6192 43.9376C72.9106 44.7074 71.9609 45.278 70.7702 45.6497C69.5797 46.0081 68.1198 46.1939 66.3906 46.1939H59.2186ZM64.6613 42.6235H66.2062C66.759 42.6235 67.2268 42.5704 67.6378 42.4776C68.0489 42.398 68.389 42.2785 68.6584 42.159C68.9418 42.0396 69.1686 41.8405 69.3529 41.5485C69.5371 41.2698 69.6789 41.0176 69.7781 40.7787C69.8773 40.5398 69.9482 40.1947 69.9907 39.7169C70.0474 39.2391 70.0758 38.8277 70.0758 38.4825C70.0899 38.1507 70.1041 37.6464 70.1041 36.9828V26.7629C70.1041 26.0993 70.0899 25.5684 70.0616 25.1702C70.0474 24.7588 69.9766 24.3606 69.8915 23.9491C69.8065 23.5377 69.6647 23.2192 69.4946 22.9935C69.3246 22.7679 69.0978 22.5556 68.8001 22.383C68.5166 22.1839 68.1622 22.0645 67.7229 21.9981C67.2977 21.9185 66.7732 21.8786 66.1638 21.8786H64.6613V42.6235Z" fill="black"/>
<path d="M84.193 8.99131L74.243 16.8221H68.1623L84.2922 4.19995L100.508 16.5832L94.5968 16.9946L84.193 8.99131ZM0 53.6666H163V50.2556H0V53.6666Z" fill="#646464"/>
</svg>
