<svg width="34" height="34" viewBox="0 0 34 34" fill="none" xmlns="http://www.w3.org/2000/svg">
<path d="M8.16008 11.1066H28.5601L25.9717 21.1706C25.7767 21.9282 25.3649 22.5946 24.7987 23.069C24.2324 23.5434 23.5426 23.8 22.8334 23.8H11.899C11.0952 23.8005 10.3194 23.4714 9.72047 22.8758C9.12148 22.2802 8.74136 21.46 8.65294 20.5722L7.34408 7.47998H4.08008" stroke="black" stroke-width="1.5" stroke-linecap="round" stroke-linejoin="round"/>
<path d="M11.3339 30.244C12.2281 30.244 12.9529 29.5191 12.9529 28.6249C12.9529 27.7307 12.2281 27.0059 11.3339 27.0059C10.4397 27.0059 9.71484 27.7307 9.71484 28.6249C9.71484 29.5191 10.4397 30.244 11.3339 30.244Z" fill="black"/>
<path d="M24.286 30.244C25.1802 30.244 25.9051 29.5191 25.9051 28.6249C25.9051 27.7307 25.1802 27.0059 24.286 27.0059C23.3919 27.0059 22.667 27.7307 22.667 28.6249C22.667 29.5191 23.3919 30.244 24.286 30.244Z" fill="black"/>
</svg>
