<svg width="60" height="60" viewBox="0 0 60 60" fill="none" xmlns="http://www.w3.org/2000/svg">
<path d="M19.424 40C18.733 40 18.1565 39.769 17.6945 39.307C17.2325 38.845 17.001 38.268 17 37.576V21.424C17 20.733 17.2315 20.1565 17.6945 19.6945C18.1575 19.2325 18.7335 19.001 19.4225 19H41.5775C42.2675 19 42.8435 19.2315 43.3055 19.6945C43.7675 20.1575 43.999 20.734 44 21.424V37.5775C44 38.2675 43.7685 38.844 43.3055 39.307C42.8425 39.77 42.2665 40.001 41.5775 40H19.424ZM42.5 21.8275L31.172 29.2435C31.066 29.2985 30.959 29.345 30.851 29.383C30.742 29.42 30.625 29.4385 30.5 29.4385C30.375 29.4385 30.258 29.42 30.149 29.383C30.04 29.346 29.933 29.2995 29.828 29.2435L18.5 21.826V37.576C18.5 37.846 18.5865 38.0675 18.7595 38.2405C18.9325 38.4135 19.154 38.5 19.424 38.5H41.5775C41.8465 38.5 42.0675 38.4135 42.2405 38.2405C42.4135 38.0675 42.5 37.846 42.5 37.576V21.8275ZM30.5 28L42.038 20.5H18.962L30.5 28ZM18.5 22.144V20.9275V20.9785V20.5V20.98V20.902V22.144Z" fill="white"/>
</svg>
