<svg width="24" height="24" viewBox="0 0 24 24" fill="none" xmlns="http://www.w3.org/2000/svg">
<path d="M11.9847 15.408L15.2267 19.094C16.4267 20.459 17.0277 21.142 17.6567 20.975C18.2847 20.809 18.5007 19.911 18.9317 18.114L21.3217 8.14598C21.9867 5.37798 22.3187 3.99498 21.5807 3.31198C20.8427 2.62898 19.5637 3.13698 17.0057 4.15198L5.13974 8.86498C3.09374 9.67798 2.07074 10.084 2.00574 10.782C1.99809 10.8531 1.99809 10.9249 2.00574 10.996C2.06874 11.695 3.08974 12.104 5.13374 12.923C6.05874 13.294 6.52174 13.48 6.85374 13.835C6.89107 13.875 6.92707 13.9163 6.96174 13.959C7.26774 14.339 7.39774 14.839 7.65874 15.835L8.14774 17.702C8.40074 18.672 8.52774 19.158 8.86074 19.224C9.19374 19.29 9.48274 18.888 10.0617 18.083L11.9847 15.408ZM11.9847 15.408L11.6677 15.078C11.3057 14.7 11.1247 14.512 11.1247 14.278C11.1247 14.044 11.3047 13.855 11.6677 13.478L15.2407 9.75398" stroke="white" stroke-width="2" stroke-linecap="round" stroke-linejoin="round"/>
</svg>
