<svg width="61" height="60" viewBox="0 0 61 60" fill="none" xmlns="http://www.w3.org/2000/svg">
<path d="M42.25 45C42.8467 45 43.419 44.7629 43.841 44.341C44.2629 43.919 44.5 43.3467 44.5 42.75V37.5C44.5 36.9033 44.2629 36.331 43.841 35.909C43.419 35.4871 42.8467 35.25 42.25 35.25C40.495 35.25 38.77 34.98 37.12 34.425C36.7255 34.3005 36.3045 34.2864 35.9025 34.3842C35.5006 34.4821 35.1331 34.6881 34.84 34.98L32.68 37.14C28.9484 35.1036 25.8814 32.0366 23.845 28.305L25.99 26.16C26.605 25.575 26.83 24.705 26.56 23.865C26.02 22.23 25.75 20.505 25.75 18.75C25.75 18.1533 25.5129 17.581 25.091 17.159C24.669 16.7371 24.0967 16.5 23.5 16.5H18.25C17.6533 16.5 17.081 16.7371 16.659 17.159C16.2371 17.581 16 18.1533 16 18.75C16 33.225 27.775 45 42.25 45ZM18.25 18H23.5C23.6989 18 23.8897 18.079 24.0303 18.2197C24.171 18.3603 24.25 18.5511 24.25 18.75C24.25 20.67 24.55 22.545 25.135 24.33C25.21 24.54 25.195 24.84 24.955 25.08L22 28.02C24.475 32.865 28.105 36.495 32.965 39L35.89 36.045C36.1 35.835 36.385 35.775 36.655 35.85C38.455 36.45 40.33 36.75 42.25 36.75C42.4489 36.75 42.6397 36.829 42.7803 36.9697C42.921 37.1103 43 37.3011 43 37.5V42.75C43 42.9489 42.921 43.1397 42.7803 43.2803C42.6397 43.421 42.4489 43.5 42.25 43.5C28.6 43.5 17.5 32.4 17.5 18.75C17.5 18.5511 17.579 18.3603 17.7197 18.2197C17.8603 18.079 18.0511 18 18.25 18Z" fill="white"/>
</svg>
