<svg width="175" height="100" viewBox="0 0 175 100" fill="none" xmlns="http://www.w3.org/2000/svg">
<rect width="175" height="100" fill="white"/>
<path d="M109.809 61.9938C106.507 61.9938 104.133 61.1547 102.702 59.4767C101.272 57.8129 100.557 55.3528 100.557 52.1247V41.0753C100.557 39.4826 100.724 38.1032 101.043 36.9372C101.363 35.7711 101.88 34.7614 102.596 33.894C103.311 33.0407 104.27 32.415 105.472 31.9884C106.674 31.5476 108.12 31.3342 109.809 31.3342C113.08 31.3342 115.454 32.1591 116.885 33.8086C118.315 35.4582 119.046 37.8757 119.046 41.0753V52.1247C119.046 53.7032 118.878 55.0826 118.543 56.2629C118.224 57.4432 117.691 58.4813 116.976 59.363C116.261 60.2304 115.317 60.8846 114.115 61.3254C112.913 61.7662 111.483 61.9938 109.809 61.9938ZM108.333 57.7134C108.743 57.8698 109.23 57.9551 109.809 57.9551C110.372 57.9551 110.859 57.8698 111.254 57.7134C111.65 57.5569 111.97 57.3579 112.198 57.1019C112.441 56.8459 112.624 56.5188 112.761 56.1064C112.898 55.6941 112.989 55.2817 113.035 54.8835C113.08 54.4711 113.111 53.9876 113.111 53.4188V39.8097C113.111 39.0845 113.065 38.4872 112.989 38.0037C112.913 37.5202 112.761 37.0651 112.533 36.6528C112.304 36.2119 111.97 35.8991 111.528 35.6858C111.072 35.4724 110.493 35.3587 109.809 35.3587C109.109 35.3587 108.53 35.4724 108.059 35.6858C107.602 35.8991 107.267 36.2119 107.054 36.6528C106.841 37.0651 106.689 37.5202 106.613 38.0037C106.537 38.4872 106.491 39.0845 106.491 39.8097V53.4188C106.491 53.9876 106.507 54.4711 106.552 54.8835C106.613 55.2817 106.689 55.6941 106.826 56.1064C106.963 56.5188 107.146 56.8459 107.389 57.1019C107.617 57.3579 107.937 57.5569 108.333 57.7134ZM130.9 61.9938C129.47 61.9938 128.222 61.8373 127.172 61.5245C126.122 61.2116 125.254 60.7708 124.57 60.202C123.9 59.6474 123.367 58.9221 122.957 58.0404C122.546 57.1446 122.272 56.1918 122.104 55.1679C121.952 54.1298 121.876 52.9353 121.876 51.5701V31.6756H127.537V52.1247C127.537 52.8215 127.552 53.4188 127.598 53.9165C127.628 54.4142 127.72 54.9261 127.841 55.4665C127.978 56.0211 128.146 56.4477 128.389 56.7748C128.633 57.1019 128.952 57.3721 129.378 57.5854C129.804 57.7987 130.307 57.9125 130.9 57.9125C131.493 57.9125 131.996 57.7987 132.407 57.5854C132.833 57.3721 133.152 57.1019 133.38 56.7748C133.609 56.4477 133.791 56.0211 133.913 55.4665C134.05 54.9261 134.141 54.4142 134.172 53.9307C134.202 53.4472 134.217 52.8357 134.217 52.1247V31.6756H139.893V51.5701C139.893 52.9353 139.802 54.1298 139.635 55.1679C139.483 56.1918 139.193 57.1446 138.783 58.0404C138.387 58.9221 137.854 59.6474 137.185 60.202C136.515 60.7708 135.648 61.2116 134.598 61.5245C133.548 61.8373 132.315 61.9938 130.9 61.9938ZM150.972 61.9938C145.326 61.9938 142.374 58.9506 142.085 52.8499L147.167 51.8545C147.304 55.822 148.507 57.7987 150.804 57.7987C151.687 57.7987 152.357 57.5569 152.783 57.045C153.209 56.5331 153.437 55.8647 153.437 54.9972C153.437 54.1725 153.27 53.4188 152.95 52.722C152.63 52.0252 152.25 51.4563 151.824 51.0297C151.398 50.5889 150.789 50.0343 150.013 49.3801L145.798 45.9672C144.55 44.9575 143.637 43.9052 143.028 42.8245C142.42 41.7295 142.115 40.3643 142.115 38.7289C142.115 36.3968 142.846 34.5908 144.307 33.2967C145.767 32.0169 147.791 31.3627 150.333 31.3342C151.52 31.32 152.554 31.4623 153.452 31.7467C154.35 32.0311 155.096 32.415 155.674 32.8843C156.267 33.3536 156.754 33.9508 157.15 34.6619C157.546 35.3729 157.835 36.1124 158.033 36.8803C158.23 37.6482 158.367 38.4872 158.443 39.4258L153.452 40.3501C153.422 39.7528 153.376 39.2267 153.315 38.7716C153.27 38.3308 153.163 37.8757 153.026 37.4207C152.889 36.9656 152.691 36.5959 152.463 36.3257C152.25 36.027 151.946 35.7995 151.55 35.6431C151.185 35.4724 150.743 35.4013 150.241 35.4298C149.374 35.4867 148.72 35.7569 148.248 36.2546C147.807 36.7381 147.578 37.378 147.578 38.2028C147.578 39.1698 147.776 39.9661 148.172 40.5918C148.583 41.2033 149.222 41.8575 150.089 42.5685L154.259 45.9672C154.959 46.5645 155.567 47.1333 156.085 47.6879C156.602 48.2425 157.089 48.8682 157.546 49.5792C158.033 50.2903 158.383 51.0724 158.626 51.9256C158.87 52.7931 159.007 53.689 159.007 54.6417C159.007 56.8175 158.261 58.595 156.77 59.9602C155.309 61.3112 153.376 61.9938 150.972 61.9938ZM161.228 61.6382V31.6756H174.65V35.5293H167.072V44.1328H173.052V47.9723H167.072V57.8556H174.741V61.6382H161.228ZM87.5304 31.704L87.5457 44.1612L94.1196 44.2039L94.1044 31.704H87.5304ZM87.6674 48.1572L87.6826 61.4534L94.2261 61.4818L94.2109 48.1572H87.6674ZM8.64348 62.3919C5.61522 62.3919 3.42392 61.5103 2.08479 59.7327C0.760874 57.9551 0.0913086 55.3812 0.0913086 51.9967V42.2414C0.0913086 40.5207 0.243483 39.0418 0.517396 37.8046C0.821743 36.539 1.3087 35.4582 1.99348 34.5054C2.67827 33.5669 3.62174 32.8701 4.82392 32.4008C6.01087 31.9315 7.48696 31.6898 9.22174 31.6898C12.4022 31.6898 14.6696 32.415 16.0544 33.8797C17.4239 35.316 18.1239 37.5202 18.1239 40.4781V41.9428H12.5239V40.3785C12.5239 39.7244 12.5087 39.184 12.4783 38.7574C12.4478 38.3308 12.3717 37.9184 12.2348 37.4918C12.1283 37.0651 11.9457 36.7239 11.7174 36.4963C11.4891 36.2688 11.1696 36.0839 10.7739 35.9417C10.3783 35.7853 9.87609 35.7142 9.29783 35.7142C8.87174 35.7142 8.47609 35.7711 8.12609 35.8848C7.79131 35.9844 7.50218 36.1124 7.27392 36.2688C7.04566 36.411 6.84783 36.6101 6.66522 36.8945C6.51305 37.1789 6.39131 37.4349 6.3 37.7051C6.22392 37.961 6.16305 38.2881 6.1174 38.7005C6.07174 39.1129 6.04131 39.4684 6.04131 39.7813C6.02609 40.0941 6.01087 40.5065 6.01087 40.99V53.0775C6.01087 54.8835 6.25435 56.2202 6.72609 57.0592C7.21305 57.884 8.11087 58.3106 9.45 58.3106C10.15 58.3106 10.7283 58.1826 11.2 57.9409C11.6717 57.6849 12.037 57.3152 12.2957 56.8175C12.5696 56.3198 12.7522 55.7509 12.8587 55.111C12.9804 54.4569 13.0413 53.6747 13.0413 52.7646V50.3045H9.57174V46.7778H18.2913V61.9938H14.5022L14.0761 58.9506C13.1174 61.2401 11.3065 62.3919 8.64348 62.3919ZM30.2217 62.3493C26.9196 62.3493 24.5609 61.5103 23.1304 59.8465C21.7 58.1684 20.9848 55.7225 20.9848 52.4802V41.4309C20.9848 39.8382 21.137 38.4588 21.4717 37.2927C21.7913 36.1266 22.3087 35.1169 23.0087 34.2637C23.7391 33.3962 24.6978 32.7705 25.9 32.3439C27.087 31.9031 28.5326 31.6898 30.2217 31.6898C33.5087 31.6898 35.8674 32.5146 37.2978 34.1642C38.7435 35.8137 39.4739 38.2312 39.4739 41.4309V52.4802C39.4739 54.0587 39.2913 55.4381 38.9717 56.6326C38.637 57.7987 38.1196 58.8368 37.4044 59.7185C36.6891 60.5859 35.7304 61.2401 34.5435 61.6809C33.3413 62.136 31.8957 62.3493 30.2217 62.3493ZM28.7609 58.0689C29.1717 58.2253 29.6587 58.3106 30.2217 58.3106C30.7848 58.3106 31.2717 58.2253 31.6674 58.0689C32.0783 57.9125 32.3978 57.7134 32.6261 57.4574C32.8696 57.2014 33.0522 56.8744 33.1891 56.462C33.3261 56.0496 33.4174 55.6372 33.463 55.239C33.5087 54.8266 33.5239 54.3431 33.5239 53.7743V40.1652C33.5239 39.44 33.4935 38.8427 33.4174 38.3592C33.3413 37.8757 33.1891 37.4207 32.9457 37.0083C32.7326 36.5674 32.3978 36.2546 31.9413 36.0413C31.5 35.828 30.9217 35.7142 30.2217 35.7142C29.5217 35.7142 28.9435 35.828 28.487 36.0413C28.0304 36.2546 27.6957 36.5674 27.4826 37.0083C27.2544 37.4207 27.1174 37.8757 27.0413 38.3592C26.9652 38.8427 26.9196 39.44 26.9196 40.1652V53.7743C26.9196 54.3431 26.9348 54.8266 26.9804 55.239C27.0261 55.6372 27.1174 56.0496 27.2544 56.462C27.3913 56.8744 27.5739 57.2014 27.8022 57.4574C28.0457 57.7134 28.35 57.9125 28.7609 58.0689ZM51.2674 62.3493C47.9652 62.3493 45.6065 61.5103 44.1761 59.8465C42.7457 58.1684 42.0304 55.7225 42.0304 52.4802V41.4309C42.0304 39.8382 42.1826 38.4588 42.5022 37.2927C42.8217 36.1266 43.3391 35.1169 44.0544 34.2637C44.7696 33.3962 45.7283 32.7705 46.9304 32.3439C48.1326 31.9031 49.5783 31.6898 51.2674 31.6898C54.5543 31.6898 56.913 32.5146 58.3435 34.1642C59.7891 35.8137 60.5043 38.2312 60.5043 41.4309V52.4802C60.5043 54.0587 60.337 55.4381 60.0022 56.6326C59.6826 57.7987 59.1652 58.8368 58.4348 59.7185C57.7348 60.5859 56.7761 61.2401 55.5739 61.6809C54.3717 62.136 52.9413 62.3493 51.2674 62.3493ZM49.7913 58.0689C50.2022 58.2253 50.7043 58.3106 51.2674 58.3106C51.8304 58.3106 52.3174 58.2253 52.713 58.0689C53.1087 57.9125 53.4283 57.7134 53.6565 57.4574C53.9152 57.2014 54.0978 56.8744 54.2196 56.462C54.3717 56.0496 54.4631 55.6372 54.4935 55.239C54.5391 54.8266 54.5696 54.3431 54.5696 53.7743V40.1652C54.5696 39.44 54.5391 38.8427 54.463 38.3592C54.3717 37.8757 54.2196 37.4207 53.9913 37.0083C53.7783 36.5674 53.4435 36.2546 52.987 36.0413C52.5304 35.828 51.9674 35.7142 51.2674 35.7142C50.5674 35.7142 49.9891 35.828 49.5326 36.0413C49.0761 36.2546 48.7413 36.5674 48.513 37.0083C48.3 37.4207 48.1478 37.8757 48.0717 38.3592C47.9957 38.8427 47.9652 39.44 47.9652 40.1652V53.7743C47.9652 54.3431 47.9804 54.8266 48.0109 55.239C48.0717 55.6372 48.163 56.0496 48.2848 56.462C48.437 56.8744 48.6196 57.2014 48.8478 57.4574C49.0761 57.7134 49.3957 57.9125 49.7913 58.0689ZM63.5783 61.9938V32.0311H71.05C72.9826 32.0311 74.5957 32.2159 75.9044 32.5715C77.1978 32.9412 78.2478 33.51 79.0391 34.2921C79.8152 35.0743 80.3783 36.0413 80.6978 37.1789C81.0326 38.3166 81.2 39.7102 81.2 41.374V52.1816C81.2 53.888 81.0326 55.3385 80.6978 56.5331C80.363 57.7276 79.8 58.7373 79.0391 59.5763C78.2783 60.4011 77.2587 61.0125 75.9804 61.4107C74.7022 61.7947 73.1348 61.9938 71.2783 61.9938H63.5783ZM69.4217 58.1684H71.0804C71.6739 58.1684 72.1761 58.1115 72.6174 58.012C73.0587 57.9267 73.4239 57.7987 73.7131 57.6707C74.0174 57.5427 74.2609 57.3294 74.4587 57.0166C74.6565 56.7179 74.8087 56.4477 74.9152 56.1918C75.0217 55.9358 75.0978 55.5661 75.1435 55.0541C75.2044 54.5422 75.2348 54.1014 75.2348 53.7316C75.25 53.3761 75.2652 52.8357 75.2652 52.1247V41.1749C75.2652 40.4639 75.25 39.895 75.2196 39.4684C75.2044 39.0276 75.1283 38.601 75.037 38.1601C74.9457 37.7193 74.7935 37.378 74.6109 37.1362C74.4283 36.8945 74.1848 36.667 73.8652 36.4821C73.5609 36.2688 73.1804 36.1408 72.7087 36.0697C72.2522 35.9844 71.6891 35.9417 71.0348 35.9417H69.4217V58.1684Z" fill="#544F4C"/>
<path d="M90.3913 22.1336L79.7087 30.5237H73.1804L90.4978 17L107.907 30.2678L101.561 30.7086L90.3913 22.1336ZM0 70H175V66.3453H0V70Z" fill="#B7A18C"/>
</svg>
