<svg width="40" height="40" viewBox="0 0 40 40" fill="none" xmlns="http://www.w3.org/2000/svg">
<path d="M6.6665 12.3809H29.5236C30.534 12.3809 31.503 12.7823 32.2174 13.4967C32.9318 14.2111 33.3332 15.1801 33.3332 16.1905V27.619C33.3332 28.6294 32.9318 29.5983 32.2174 30.3128C31.503 31.0272 30.534 31.4286 29.5236 31.4286H10.476C9.46568 31.4286 8.49671 31.0272 7.78229 30.3128C7.06786 29.5983 6.6665 28.6294 6.6665 27.619V12.3809ZM6.6665 12.3809H27.6189V10.4762C27.6189 9.971 27.4182 9.48652 27.061 9.1293C26.7038 8.77209 26.2193 8.57141 25.7141 8.57141H8.57127C8.06609 8.57141 7.58161 8.77209 7.2244 9.1293C6.86718 9.48652 6.6665 9.971 6.6665 10.4762V12.3809Z" stroke="black" stroke-width="0.857143" stroke-linecap="round" stroke-linejoin="round"/>
<path d="M27.6191 23.8095C28.6711 23.8095 29.5239 22.9567 29.5239 21.9048C29.5239 20.8528 28.6711 20 27.6191 20C26.5671 20 25.7144 20.8528 25.7144 21.9048C25.7144 22.9567 26.5671 23.8095 27.6191 23.8095Z" fill="black"/>
</svg>
