<svg width="34" height="23" viewBox="0 0 34 23" fill="none" xmlns="http://www.w3.org/2000/svg">
<rect width="34" height="23" rx="5" fill="#DF0C0C"/>
<path d="M12.43 18.252L11.458 17.478L21.484 5.148L22.438 5.922L12.43 18.252ZM20.422 18.234C19.546 18.234 18.844 17.982 18.316 17.478C17.8 16.962 17.542 16.266 17.542 15.39V15.282C17.542 14.406 17.8 13.716 18.316 13.212C18.844 12.696 19.546 12.438 20.422 12.438C21.274 12.438 21.964 12.696 22.492 13.212C23.02 13.716 23.284 14.406 23.284 15.282V15.39C23.284 16.266 23.02 16.962 22.492 17.478C21.976 17.982 21.286 18.234 20.422 18.234ZM20.422 17.19C20.926 17.19 21.322 17.028 21.61 16.704C21.91 16.38 22.06 15.96 22.06 15.444V15.228C22.06 14.7 21.91 14.28 21.61 13.968C21.322 13.644 20.926 13.482 20.422 13.482C19.906 13.482 19.498 13.644 19.198 13.968C18.91 14.28 18.766 14.7 18.766 15.228V15.444C18.766 15.96 18.91 16.38 19.198 16.704C19.498 17.028 19.906 17.19 20.422 17.19ZM13.492 10.962C12.616 10.962 11.92 10.704 11.404 10.188C10.888 9.672 10.63 8.982 10.63 8.118V8.01C10.63 7.134 10.888 6.444 11.404 5.94C11.92 5.424 12.616 5.166 13.492 5.166C14.356 5.166 15.046 5.424 15.562 5.94C16.09 6.444 16.354 7.134 16.354 8.01V8.118C16.354 8.982 16.09 9.672 15.562 10.188C15.046 10.704 14.356 10.962 13.492 10.962ZM13.492 9.918C13.996 9.918 14.398 9.756 14.698 9.432C14.998 9.108 15.148 8.688 15.148 8.172V7.956C15.148 7.428 14.998 7.008 14.698 6.696C14.398 6.372 13.996 6.21 13.492 6.21C12.976 6.21 12.568 6.372 12.268 6.696C11.98 7.008 11.836 7.428 11.836 7.956V8.172C11.836 8.688 11.98 9.108 12.268 9.432C12.568 9.756 12.976 9.918 13.492 9.918Z" fill="white"/>
</svg>
