<svg width="28" height="28" viewBox="0 0 28 28" fill="none" xmlns="http://www.w3.org/2000/svg">
<path d="M3.5 10.1616C3.5 8.44189 3.5 7.58322 3.9585 7.08156C4.12077 6.90309 4.31818 6.7601 4.53833 6.66156C5.159 6.38622 5.9745 6.65806 7.6055 7.20172C8.85033 7.61706 9.47217 7.82472 10.1022 7.80256C10.3333 7.79496 10.5631 7.76448 10.7882 7.71156C11.4007 7.56572 11.9467 7.20172 13.0387 6.47489L14.651 5.39922C16.051 4.46589 16.7498 3.99922 17.5525 3.89306C18.3552 3.78456 19.1532 4.05056 20.748 4.58256L22.1072 5.03522C23.2622 5.42022 23.8397 5.61272 24.1698 6.07122C24.5 6.52972 24.5 7.13989 24.5 8.35556V17.8394C24.5 19.5579 24.5 20.4177 24.0415 20.9194C23.879 21.097 23.6816 21.2392 23.4617 21.3371C22.841 21.6136 22.0255 21.3417 20.3945 20.7981C19.1497 20.3827 18.5278 20.1751 17.8978 20.1972C17.6667 20.2048 17.4369 20.2353 17.2118 20.2882C16.5993 20.4341 16.0533 20.7981 14.9613 21.5249L13.349 22.6006C11.949 23.5339 11.2502 24.0006 10.4475 24.1067C9.64483 24.2152 8.84683 23.9492 7.252 23.4172L5.89283 22.9646C4.73783 22.5796 4.16033 22.3871 3.83017 21.9286C3.5 21.4701 3.5 20.8599 3.5 19.6442V10.1616Z" stroke="white" stroke-width="1.5"/>
<path opacity="0.5" d="M10.5 7.7455V23.9167M17.5 3.5V19.8333" stroke="white" stroke-width="1.5"/>
</svg>
