<svg width="28" height="28" viewBox="0 0 28 28" fill="none" xmlns="http://www.w3.org/2000/svg">
<path d="M9.08201 1.7838L9.08085 1.77626C9.05095 1.5825 8.95611 1.40454 8.7603 1.23507C8.57229 1.07236 8.37479 1 8.15 1H2.075C1.74868 1 1.50366 1.10345 1.30355 1.30355C1.10348 1.50362 1.00003 1.7486 1 2.07484L9.08201 1.7838ZM9.08201 1.7838L9.08341 1.7913M9.08201 1.7838L9.08341 1.7913M9.08341 1.7913L10.0556 7.0263C10.0984 7.37913 10.0817 7.64183 10.0301 7.83094C9.97783 8.02268 9.88442 8.18348 9.74644 8.32144L9.74464 8.32326M9.08341 1.7913L9.74464 8.32326M9.74464 8.32326L6.10714 11.9983L5.8464 12.2617M9.74464 8.32326L5.8464 12.2617M5.8464 12.2617L6.02265 12.5878M5.8464 12.2617L6.02265 12.5878M6.02265 12.5878C6.53737 13.54 7.14744 14.4581 7.85199 15.3421C8.55207 16.2205 9.32209 17.0669 10.1616 17.8813C10.9501 18.6695 11.777 19.4012 12.6425 20.0763C13.511 20.7537 14.4302 21.3726 15.3998 21.9329L15.7321 22.125M6.02265 12.5878L15.7321 22.125M15.7321 22.125L16.0036 21.8536M15.7321 22.125L16.0036 21.8536M16.0036 21.8536L19.5286 18.3286C19.6858 18.1713 19.9042 18.0399 20.2044 17.9473C20.4976 17.8568 20.7749 17.833 21.0414 17.8682L26.1801 18.9109C26.4324 18.9861 26.6283 19.1142 26.7826 19.2945C26.9358 19.4737 27 19.6537 27 19.85V25.925C27 26.2513 26.8965 26.4963 26.6964 26.6964C26.4963 26.8965 26.2513 27 25.925 27C22.875 27 19.8567 26.3358 16.8664 25.0005M16.0036 21.8536L16.8664 25.0005M16.8664 25.0005C13.8754 23.6648 11.1505 21.7694 8.69112 19.309M16.8664 25.0005L8.69112 19.309M8.69112 19.309C6.23169 16.8486 4.33669 14.1236 3.00102 11.1336M8.69112 19.309L3.00102 11.1336M3.00102 11.1336C1.6657 8.14429 1.001 5.12601 1 2.075L3.00102 11.1336Z" fill="white" stroke="#646464"/>
</svg>
